<svg class="logo" xmlns="http://www.w3.org/2000/svg" fill="none" width="64" height="64" viewBox="0 0 32 64">
  <path class="symbol" fill="#057B48" d="M30.09 33.55c-2.96 6.49-4.78 13.65-5.55 21.88H9.72c-.39-5.57-1.12-13.55-4.85-21.88a53 53 0 00-2.58-5 60.2 60.2 0 002.6-5.51A68.64 68.64 0 009.7 2.28h14.83c.66 6.42 2.61 13.75 5.54 20.77.77 1.85 1.64 3.7 2.6 5.5a57.58 57.58 0 00-2.59 5zm4.73-5.5a69.02 69.02 0 01-2.79-5.86C29.04 15.02 27.1 7.53 26.57 1.1c-.05-.56-.51-1-1.06-1H8.73C8.17.1 7.7.56 7.67 1.13A66.88 66.88 0 012.92 22.2a57.5 57.5 0 01-2.79 5.85c-.18.35-.17.77.03 1.1a48.95 48.95 0 012.78 5.3c3.8 8.49 4.34 16.38 4.73 22.14.04.57.5 1 1.06 1H25.5c.55 0 1-.42 1.06-.98.7-8.39 2.48-15.63 5.45-22.14a55.6 55.6 0 012.78-5.33c.2-.33.21-.74.02-1.08"></path>
  <path class="symbol" fill="#057B48" d="M27.76 33.06c.61-1.54 1.3-3.07 2.05-4.56l-.63-1.23c-.63-1.2-1.28-2.46-1.77-3.81a80.37 80.37 0 01-4.28-17.41L11.35 53.03h11.6a73.05 73.05 0 014.81-19.97z"></path>
</svg>